<mxfile host="" modified="2021-03-04T16:34:30.114Z" agent="5.0 (Windows NT 6.2; Win64; x64) AppleWebKit/537.36 (KHTML, like Gecko) Chrome/81.0.4044.113 Safari/537.36" etag="27SMAG9m9ahgP0EqRB9M" version="13.7.9" type="embed"><diagram id="vfP6c3AbyUxylTUkLD-v" name="Page-1"><mxGraphModel dx="934" dy="1149" grid="0" gridSize="10" guides="1" tooltips="1" connect="1" arrows="1" fold="1" page="0" pageScale="1" pageWidth="827" pageHeight="1169" math="0" shadow="0"><root><mxCell id="0"/><mxCell id="1" parent="0"/><mxCell id="z1s9zQV4c9Wm0k2emaL7-2" value="No" style="edgeStyle=orthogonalEdgeStyle;rounded=0;orthogonalLoop=1;jettySize=auto;html=1;" parent="1" source="z1s9zQV4c9Wm0k2emaL7-1" target="z1s9zQV4c9Wm0k2emaL7-3" edge="1"><mxGeometry relative="1" as="geometry"><mxPoint x="667" y="243" as="targetPoint"/></mxGeometry></mxCell><mxCell id="z1s9zQV4c9Wm0k2emaL7-4" value="Yes" style="edgeStyle=orthogonalEdgeStyle;rounded=0;orthogonalLoop=1;jettySize=auto;html=1;" parent="1" source="z1s9zQV4c9Wm0k2emaL7-1" target="z1s9zQV4c9Wm0k2emaL7-5" edge="1"><mxGeometry relative="1" as="geometry"><mxPoint x="303" y="364" as="targetPoint"/></mxGeometry></mxCell><mxCell id="z1s9zQV4c9Wm0k2emaL7-1" value="Collide with something?&lt;br&gt;" style="rhombus;whiteSpace=wrap;html=1;" parent="1" vertex="1"><mxGeometry x="263" y="203" width="80" height="80" as="geometry"/></mxCell><mxCell id="z1s9zQV4c9Wm0k2emaL7-3" value="False" style="ellipse;whiteSpace=wrap;html=1;aspect=fixed;" parent="1" vertex="1"><mxGeometry x="627" y="203" width="80" height="80" as="geometry"/></mxCell><mxCell id="z1s9zQV4c9Wm0k2emaL7-6" value="Yes" style="edgeStyle=orthogonalEdgeStyle;rounded=0;orthogonalLoop=1;jettySize=auto;html=1;" parent="1" source="z1s9zQV4c9Wm0k2emaL7-5" target="z1s9zQV4c9Wm0k2emaL7-3" edge="1"><mxGeometry relative="1" as="geometry"/></mxCell><mxCell id="z1s9zQV4c9Wm0k2emaL7-11" value="No" style="edgeStyle=orthogonalEdgeStyle;rounded=0;orthogonalLoop=1;jettySize=auto;html=1;" parent="1" source="z1s9zQV4c9Wm0k2emaL7-5" target="z1s9zQV4c9Wm0k2emaL7-12" edge="1"><mxGeometry relative="1" as="geometry"><mxPoint x="303" y="508.3103448275863" as="targetPoint"/></mxGeometry></mxCell><mxCell id="z1s9zQV4c9Wm0k2emaL7-5" value="Is it a point inside the segment" style="rhombus;whiteSpace=wrap;html=1;" parent="1" vertex="1"><mxGeometry x="263" y="355" width="80" height="80" as="geometry"/></mxCell><mxCell id="z1s9zQV4c9Wm0k2emaL7-13" value="No" style="edgeStyle=orthogonalEdgeStyle;rounded=0;orthogonalLoop=1;jettySize=auto;html=1;" parent="1" source="z1s9zQV4c9Wm0k2emaL7-12" target="z1s9zQV4c9Wm0k2emaL7-14" edge="1"><mxGeometry relative="1" as="geometry"><mxPoint x="303" y="673.1379310344828" as="targetPoint"/></mxGeometry></mxCell><mxCell id="z1s9zQV4c9Wm0k2emaL7-23" value="Yes" style="edgeStyle=orthogonalEdgeStyle;rounded=0;orthogonalLoop=1;jettySize=auto;html=1;" parent="1" source="z1s9zQV4c9Wm0k2emaL7-12" target="z1s9zQV4c9Wm0k2emaL7-25" edge="1"><mxGeometry relative="1" as="geometry"><mxPoint x="422" y="555.5" as="targetPoint"/></mxGeometry></mxCell><mxCell id="z1s9zQV4c9Wm0k2emaL7-12" value="Is the list element analized a point?" style="rhombus;whiteSpace=wrap;html=1;" parent="1" vertex="1"><mxGeometry x="237.5" y="507" width="131" height="97" as="geometry"/></mxCell><mxCell id="z1s9zQV4c9Wm0k2emaL7-15" value="Yes" style="edgeStyle=orthogonalEdgeStyle;rounded=0;orthogonalLoop=1;jettySize=auto;html=1;exitX=1;exitY=0.5;exitDx=0;exitDy=0;" parent="1" source="z1s9zQV4c9Wm0k2emaL7-14" target="z1s9zQV4c9Wm0k2emaL7-16" edge="1"><mxGeometry x="-0.469" relative="1" as="geometry"><mxPoint x="688.5172413793105" y="673.1379310344828" as="targetPoint"/><Array as="points"><mxPoint x="444" y="696"/><mxPoint x="444" y="696"/></Array><mxPoint as="offset"/></mxGeometry></mxCell><mxCell id="z1s9zQV4c9Wm0k2emaL7-28" value="No" style="edgeStyle=orthogonalEdgeStyle;rounded=0;orthogonalLoop=1;jettySize=auto;html=1;" parent="1" source="z1s9zQV4c9Wm0k2emaL7-14" target="z1s9zQV4c9Wm0k2emaL7-29" edge="1"><mxGeometry relative="1" as="geometry"><mxPoint x="303" y="819.1666666666667" as="targetPoint"/></mxGeometry></mxCell><mxCell id="z1s9zQV4c9Wm0k2emaL7-14" value="Is it a LineString?" style="rhombus;whiteSpace=wrap;html=1;" parent="1" vertex="1"><mxGeometry x="263" y="655.9979310344828" width="80" height="80" as="geometry"/></mxCell><mxCell id="z1s9zQV4c9Wm0k2emaL7-16" value="True" style="ellipse;whiteSpace=wrap;html=1;aspect=fixed;" parent="1" vertex="1"><mxGeometry x="567.9972413793105" y="655.9979310344828" width="80" height="80" as="geometry"/></mxCell><mxCell id="z1s9zQV4c9Wm0k2emaL7-19" value="Yes" style="edgeStyle=orthogonalEdgeStyle;rounded=0;orthogonalLoop=1;jettySize=auto;html=1;entryX=0;entryY=0.5;entryDx=0;entryDy=0;" parent="1" source="z1s9zQV4c9Wm0k2emaL7-18" target="z1s9zQV4c9Wm0k2emaL7-12" edge="1"><mxGeometry relative="1" as="geometry"><Array as="points"><mxPoint x="196" y="946"/><mxPoint x="196" y="556"/></Array></mxGeometry></mxCell><mxCell id="z1s9zQV4c9Wm0k2emaL7-20" value="No" style="edgeStyle=orthogonalEdgeStyle;rounded=0;orthogonalLoop=1;jettySize=auto;html=1;entryX=0.5;entryY=1;entryDx=0;entryDy=0;" parent="1" source="z1s9zQV4c9Wm0k2emaL7-18" target="z1s9zQV4c9Wm0k2emaL7-3" edge="1"><mxGeometry x="-0.634" relative="1" as="geometry"><mxPoint as="offset"/></mxGeometry></mxCell><mxCell id="z1s9zQV4c9Wm0k2emaL7-18" value="There is more elements to analize?" style="rhombus;whiteSpace=wrap;html=1;" parent="1" vertex="1"><mxGeometry x="263" y="905.9996551724137" width="80" height="80" as="geometry"/></mxCell><mxCell id="z1s9zQV4c9Wm0k2emaL7-26" value="No" style="edgeStyle=orthogonalEdgeStyle;rounded=0;orthogonalLoop=1;jettySize=auto;html=1;" parent="1" source="z1s9zQV4c9Wm0k2emaL7-25" target="z1s9zQV4c9Wm0k2emaL7-16" edge="1"><mxGeometry relative="1" as="geometry"/></mxCell><mxCell id="z1s9zQV4c9Wm0k2emaL7-27" value="Yes" style="edgeStyle=orthogonalEdgeStyle;rounded=0;orthogonalLoop=1;jettySize=auto;html=1;entryX=1;entryY=0;entryDx=0;entryDy=0;" parent="1" source="z1s9zQV4c9Wm0k2emaL7-25" target="z1s9zQV4c9Wm0k2emaL7-18" edge="1"><mxGeometry x="-0.8102" relative="1" as="geometry"><Array as="points"><mxPoint x="518" y="926"/></Array><mxPoint as="offset"/></mxGeometry></mxCell><mxCell id="z1s9zQV4c9Wm0k2emaL7-25" value="Is it inside the segment?" style="rhombus;whiteSpace=wrap;html=1;" parent="1" vertex="1"><mxGeometry x="478" y="514" width="80" height="80" as="geometry"/></mxCell><mxCell id="z1s9zQV4c9Wm0k2emaL7-30" value="Yes" style="edgeStyle=orthogonalEdgeStyle;rounded=0;orthogonalLoop=1;jettySize=auto;html=1;" parent="1" source="z1s9zQV4c9Wm0k2emaL7-29" target="z1s9zQV4c9Wm0k2emaL7-16" edge="1"><mxGeometry x="-0.6094" relative="1" as="geometry"><mxPoint as="offset"/></mxGeometry></mxCell><mxCell id="z1s9zQV4c9Wm0k2emaL7-31" value="No" style="edgeStyle=orthogonalEdgeStyle;rounded=0;orthogonalLoop=1;jettySize=auto;html=1;" parent="1" source="z1s9zQV4c9Wm0k2emaL7-29" target="z1s9zQV4c9Wm0k2emaL7-18" edge="1"><mxGeometry relative="1" as="geometry"/></mxCell><mxCell id="z1s9zQV4c9Wm0k2emaL7-29" value="Is something else apart from Point or LineString?" style="rhombus;whiteSpace=wrap;html=1;" parent="1" vertex="1"><mxGeometry x="263" y="779.1666666666667" width="80" height="80" as="geometry"/></mxCell><mxCell id="fjp3nET49TBP4rbQtAzQ-1" value="" style="endArrow=classic;html=1;" parent="1" target="z1s9zQV4c9Wm0k2emaL7-1" edge="1"><mxGeometry width="50" height="50" relative="1" as="geometry"><mxPoint x="304" y="80" as="sourcePoint"/><mxPoint x="292" y="221" as="targetPoint"/></mxGeometry></mxCell><mxCell id="fjp3nET49TBP4rbQtAzQ-4" value="&lt;h1&gt;Collision logic inside class Polygon&lt;/h1&gt;&lt;p&gt;Diagram showing how the logic inside the method __check_intersection from the class polygon works.&lt;/p&gt;" style="text;html=1;strokeColor=none;fillColor=none;spacing=5;spacingTop=-20;whiteSpace=wrap;overflow=hidden;rounded=0;" parent="1" vertex="1"><mxGeometry x="248" y="-50" width="433" height="120" as="geometry"/></mxCell></root></mxGraphModel></diagram></mxfile>